<?xml version="1.0" encoding="UTF-8" standalone="no" ?>
<!DOCTYPE svg PUBLIC "-//W3C//DTD SVG 1.1//EN" "http://www.w3.org/Graphics/SVG/1.1/DTD/svg11.dtd">
<svg xmlns="http://www.w3.org/2000/svg" xmlns:xlink="http://www.w3.org/1999/xlink" version="1.1" width="1280" height="1024" viewBox="0 0 1280 1024" xml:space="preserve">
<desc>Created with Fabric.js 5.3.0</desc>
<defs>
</defs>
<g transform="matrix(1 0 0 1 640 512)" id="background-logo"  >
<rect style="stroke: none; stroke-width: 0; stroke-dasharray: none; stroke-linecap: butt; stroke-dashoffset: 0; stroke-linejoin: miter; stroke-miterlimit: 4; fill: rgb(255,255,255); fill-opacity: 0; fill-rule: nonzero; opacity: 1;"  paint-order="stroke"  x="-640" y="-512" rx="0" ry="0" width="1280" height="1024" />
</g>
<g transform="matrix(1.9211538461538462 0 0 1.9211538461538462 640 413.13695944570605)" id="logo-logo"  >
<g style=""  paint-order="stroke"   >
		<g transform="matrix(0.3909661127649616 0 0 0.39096611276496157 0 0)"  >
<path style="stroke: none; stroke-width: 1; stroke-dasharray: none; stroke-linecap: butt; stroke-dashoffset: 0; stroke-linejoin: miter; stroke-miterlimit: 4; fill: rgb(84,164,180); fill-rule: nonzero; opacity: 1;"  paint-order="stroke"  transform=" translate(-500, -500.0147853934376)" d="M 500 676.6 L 500 717 C 500 723.9 492.5 728.3 486.5 724.8 L 305.4 620.2 C 302.59999999999997 618.6 300.9 615.6 300.9 612.4000000000001 L 300.9 391.1 C 300.9 387.90000000000003 302.59999999999997 384.90000000000003 305.5 383.3 L 495.7 275.20000000000005 C 498.4 273.6 501.8 273.6 504.5 275.20000000000005 L 579.4 317.00000000000006 C 585.5 320.40000000000003 585.6 329.20000000000005 579.5 332.70000000000005 L 543.7 353.40000000000003 C 540.9000000000001 355.00000000000006 537.5 355.00000000000006 534.8000000000001 353.40000000000003 L 504.6000000000001 336.20000000000005 C 501.80000000000007 334.6 498.50000000000006 334.6 495.7000000000001 336.20000000000005 L 358.60000000000014 414.20000000000005 C 355.8000000000001 415.80000000000007 354.0000000000001 418.80000000000007 354.0000000000001 422.00000000000006 L 354.0000000000001 581.8000000000001 C 354.0000000000001 585.0000000000001 355.7000000000001 588.0000000000001 358.5000000000001 589.6 L 495.60000000000014 668.8000000000001 C 498.3 670.4 500 673.4 500 676.6 z M 495.5 437.1 L 451.5 411.70000000000005 C 448.7 410.1 445.3 410.1 442.5 411.70000000000005 L 407.5 431.90000000000003 C 401.5 435.40000000000003 401.5 444.00000000000006 407.5 447.50000000000006 L 495.5 498.30000000000007 C 498.3 499.9000000000001 501.7 499.9000000000001 504.5 498.30000000000007 L 685.5 393.80000000000007 C 691.5 390.30000000000007 691.5 381.6000000000001 685.4 378.20000000000005 L 650.5 358.40000000000003 C 647.7 356.8 644.3 356.8 641.6 358.40000000000003 L 504.40000000000003 437.20000000000005 C 501.7 438.7 498.3 438.7 495.5 437.1 z M 685.8 457.1 L 650.8 476.3 C 647.9 477.90000000000003 646.0999999999999 480.90000000000003 646.0999999999999 484.2 L 646.0999999999999 581.8 C 646.0999999999999 585 644.3999999999999 588 641.5999999999999 589.5999999999999 L 619.4999999999999 602.3999999999999 C 613.4999999999999 605.8999999999999 605.9999999999999 601.4999999999999 605.9999999999999 594.5999999999999 L 605.9999999999999 516.4999999999999 C 605.9999999999999 509.5999999999999 598.4999999999999 505.1999999999999 592.4999999999999 508.6999999999999 L 504.4999999999999 559.4999999999999 C 501.6999999999999 561.0999999999999 498.2999999999999 561.0999999999999 495.4999999999999 559.4999999999999 L 407.4999999999999 508.6999999999999 C 401.4999999999999 505.1999999999999 393.9999999999999 509.59999999999985 393.9999999999999 516.4999999999999 L 393.9999999999999 543.7999999999998 C 393.9999999999999 546.9999999999999 395.6999999999999 549.9999999999999 398.4999999999999 551.5999999999998 L 495.4999999999999 607.5999999999998 C 498.2999999999999 609.1999999999998 501.6999999999999 609.1999999999998 504.4999999999999 607.5999999999998 L 539.4999999999999 587.3999999999997 C 545.4999999999999 583.8999999999997 552.9999999999999 588.2999999999997 552.9999999999999 595.1999999999997 L 552.9999999999999 686.3999999999997 C 552.9999999999999 693.2999999999997 560.4999999999999 697.6999999999997 566.4999999999999 694.1999999999997 L 694.5999999999999 620.1999999999997 C 697.3999999999999 618.5999999999997 699.0999999999999 615.5999999999997 699.0999999999999 612.3999999999997 L 699.0999999999999 464.9999999999998 C 699.1 458.1 691.8 453.8 685.8 457.1 z" stroke-linecap="round" />
</g>
</g>
</g>
<g transform="matrix(1.9211538461538462 0 0 1.9211538461538462 640.8991000000001 668.1228102541645)" id="text-logo"  >
<g style=""  paint-order="stroke"   >
		<g transform="matrix(1 0 0 1 0 0)" id="text-logo-path-0"  >
<path style="stroke: none; stroke-width: 0; stroke-dasharray: none; stroke-linecap: butt; stroke-dashoffset: 0; stroke-linejoin: miter; stroke-miterlimit: 4; fill: rgb(84,164,180); fill-rule: nonzero; opacity: 1;"  paint-order="stroke"  transform=" translate(-168.555, 18.2)" d="M 39.26 -25.48 L 39.26 -36.4 L 0.57 -36.4 L 0.57 -25.48 L 12.64 -25.48 L 12.64 0 L 27.2 0 L 27.2 -25.48 Z M 49.24 -36.4 L 35.2 0 L 50.8 0 L 52.05 -4.16 L 62.56 -4.16 L 63.8 0 L 79.4 0 L 65.36 -36.4 Z M 59.59 -14.04 L 55.02 -14.04 L 57.3 -21.68 Z M 100 0.78 C 110.76 0.78 117.94 -3.95 120.17 -12.32 L 105.77 -15.08 C 104.94 -12.32 102.91 -10.82 100 -10.82 C 96.15 -10.82 93.81 -13.52 93.81 -18.2 C 93.81 -22.83 96.1 -25.58 100 -25.58 C 102.6 -25.58 104.57 -24.34 105.51 -22 L 119.96 -24.8 C 117.57 -32.71 110.45 -37.18 100 -37.18 C 87 -37.18 79.09 -30.21 79.09 -18.2 C 79.09 -6.24 86.94 0.78 100 0.78 Z M 157.35 -36.4 L 124.07 -36.4 L 124.07 0 L 157.35 0 L 157.35 -10.92 L 138.63 -10.92 L 138.63 -13.26 L 155.79 -13.26 L 155.79 -23.14 L 138.63 -23.14 L 138.63 -25.48 L 157.35 -25.48 Z M 197.03 -36.4 L 178.2 -36.4 L 178.2 0 L 197.03 0 C 210.08 0 217.93 -6.66 217.93 -18.2 C 217.93 -29.74 210.08 -36.4 197.03 -36.4 Z M 197.03 -10.92 L 192.76 -10.92 L 192.76 -25.48 L 197.03 -25.48 C 200.93 -25.48 203.22 -22.83 203.22 -18.2 C 203.22 -13.57 200.93 -10.92 197.03 -10.92 Z M 231.61 -36.4 L 217.57 0 L 233.17 0 L 234.42 -4.16 L 244.92 -4.16 L 246.17 0 L 261.77 0 L 247.73 -36.4 Z M 241.96 -14.04 L 237.38 -14.04 L 239.67 -21.68 Z M 296.4 -25.48 L 296.4 -36.4 L 257.71 -36.4 L 257.71 -25.48 L 269.78 -25.48 L 269.78 0 L 284.34 0 L 284.34 -25.48 Z M 306.38 -36.4 L 292.34 0 L 307.94 0 L 309.19 -4.16 L 319.7 -4.16 L 320.94 0 L 336.54 0 L 322.5 -36.4 Z M 316.73 -14.04 L 312.16 -14.04 L 314.44 -21.68 Z" stroke-linecap="round" />
</g>
</g>
</g>
<g transform="matrix(1.9211538461538462 0 0 1.9211538461538462 640.8299384615387 749.832365061857)" id="tagline-e3c360f8-2c2a-47e0-a462-de4aead2e5df-logo"  >
<g style=""  paint-order="stroke"   >
		<g transform="matrix(1 0 0 1 0 0)" id="tagline-e3c360f8-2c2a-47e0-a462-de4aead2e5df-logo-path-0"  >
<path style="stroke: none; stroke-width: 0; stroke-dasharray: none; stroke-linecap: butt; stroke-dashoffset: 0; stroke-linejoin: miter; stroke-miterlimit: 4; fill: rgb(84,164,180); fill-rule: nonzero; opacity: 1;"  paint-order="stroke"  transform=" translate(-208.465, 9.450000000000001)" d="M 6.21 -18.9 L 1.62 -18.9 L 1.62 0 L 5.67 0 L 5.67 -11.93 L 11.21 0 L 15.25 0 L 20.79 -11.93 L 20.79 0 L 24.84 0 L 24.84 -18.9 L 20.25 -18.9 L 13.23 -3.78 Z M 44.74 -18.9 L 37.18 0 L 41.5 0 L 42.58 -2.7 L 52.3 -2.7 L 53.38 0 L 57.7 0 L 50.14 -18.9 Z M 50.89 -6.21 L 43.98 -6.21 L 47.44 -14.85 Z M 75.19 -18.9 L 70.06 -18.9 L 70.06 0 L 74.11 0 L 74.11 -13.88 L 83.83 0 L 88.96 0 L 88.96 -18.9 L 84.91 -18.9 L 84.91 -5.02 Z M 108.86 -18.9 L 101.3 0 L 105.62 0 L 106.7 -2.7 L 116.42 -2.7 L 117.5 0 L 121.82 0 L 114.26 -18.9 Z M 115.02 -6.21 L 108.11 -6.21 L 111.56 -14.85 Z M 149.77 -2.02 L 150.09 0 L 152.79 0 L 152.79 -9.99 L 142.86 -9.99 L 142.86 -7.02 L 148.55 -7.02 C 147.74 -4.7 145.72 -3.24 142.75 -3.24 C 138.89 -3.24 136.54 -5.78 136.54 -9.45 C 136.54 -13.1 138.86 -15.66 142.75 -15.66 C 145.75 -15.66 147.82 -14.15 148.61 -11.74 L 152.79 -11.74 C 151.85 -16.23 148.18 -19.17 142.75 -19.17 C 136.49 -19.17 132.49 -15.17 132.49 -9.45 C 132.49 -3.75 136.49 0.27 142.75 0.27 C 145.58 0.27 148.01 -0.57 149.77 -2.02 Z M 181.95 -18.9 L 166.35 -18.9 L 166.35 0 L 181.95 0 L 181.95 -3.51 L 170.4 -3.51 L 170.4 -7.7 L 180.6 -7.7 L 180.6 -11.21 L 170.4 -11.21 L 170.4 -15.39 L 181.95 -15.39 Z M 199.85 -18.9 L 195.26 -18.9 L 195.26 0 L 199.31 0 L 199.31 -11.93 L 204.85 0 L 208.9 0 L 214.43 -11.93 L 214.43 0 L 218.48 0 L 218.48 -18.9 L 213.89 -18.9 L 206.87 -3.78 Z M 248 -18.9 L 232.39 -18.9 L 232.39 0 L 248 0 L 248 -3.51 L 236.44 -3.51 L 236.44 -7.7 L 246.65 -7.7 L 246.65 -11.21 L 236.44 -11.21 L 236.44 -15.39 L 248 -15.39 Z M 266.44 -18.9 L 261.31 -18.9 L 261.31 0 L 265.36 0 L 265.36 -13.88 L 275.08 0 L 280.21 0 L 280.21 -18.9 L 276.16 -18.9 L 276.16 -5.02 Z M 311.26 -15.39 L 311.26 -18.9 L 292.68 -18.9 L 292.68 -15.39 L 299.94 -15.39 L 299.94 0 L 303.99 0 L 303.99 -15.39 Z M 349.08 -18.9 L 345.03 -18.9 L 345.03 0 L 349.08 0 Z M 368.15 -18.9 L 363.02 -18.9 L 363.02 0 L 367.07 0 L 367.07 -13.88 L 376.79 0 L 381.92 0 L 381.92 -18.9 L 377.87 -18.9 L 377.87 -5.02 Z M 405.27 0.27 C 410.64 0.27 414.37 -2.7 415.31 -7.16 L 411.13 -7.16 C 410.35 -4.75 408.29 -3.24 405.27 -3.24 C 401.41 -3.24 399.06 -5.78 399.06 -9.45 C 399.06 -13.12 401.38 -15.66 405.27 -15.66 C 408.27 -15.66 410.35 -14.15 411.13 -11.74 L 415.31 -11.74 C 414.37 -16.23 410.7 -19.17 405.27 -19.17 C 399.01 -19.17 395.01 -15.17 395.01 -9.45 C 395.01 -3.73 399.01 0.27 405.27 0.27 Z" stroke-linecap="round" />
</g>
</g>
</g>
</svg>